<svg width="12" height="12" viewBox="0 0 12 12" fill="none" xmlns="http://www.w3.org/2000/svg">
<path d="M5.8125 0C2.60257 0 0 2.60351 0 5.8125C0 9.02337 2.60257 11.625 5.8125 11.625C9.02243 11.625 11.625 9.02337 11.625 5.8125C11.625 2.60351 9.02243 0 5.8125 0ZM5.8125 2.57812C6.35616 2.57812 6.79688 3.01884 6.79688 3.5625C6.79688 4.10616 6.35616 4.54688 5.8125 4.54688C5.26884 4.54688 4.82812 4.10616 4.82812 3.5625C4.82812 3.01884 5.26884 2.57812 5.8125 2.57812ZM7.125 8.53125C7.125 8.68657 6.99907 8.8125 6.84375 8.8125H4.78125C4.62593 8.8125 4.5 8.68657 4.5 8.53125V7.96875C4.5 7.81343 4.62593 7.6875 4.78125 7.6875H5.0625V6.1875H4.78125C4.62593 6.1875 4.5 6.06157 4.5 5.90625V5.34375C4.5 5.18843 4.62593 5.0625 4.78125 5.0625H6.28125C6.43657 5.0625 6.5625 5.18843 6.5625 5.34375V7.6875H6.84375C6.99907 7.6875 7.125 7.81343 7.125 7.96875V8.53125Z" fill="#828282"/>
</svg>
